{
	"asset":{
		"generator":"Khronos glTF Blender I/O v4.3.47",
		"version":"2.0"
	},
	"scene":0,
	"scenes":[
		{
			"name":"Scene",
			"nodes":[
				0
			]
		}
	],
	"nodes":[
		{
			"mesh":0,
			"name":"Suzanne"
		}
	],
	"meshes":[
		{
			"name":"Suzanne",
			"primitives":[
				{
					"attributes":{
						"POSITION":0,
						"NORMAL":1,
						"TEXCOORD_0":2
					},
					"indices":3
				}
			]
		}
	],
	"accessors":[
		{
			"bufferView":0,
			"componentType":5126,
			"count":2904,
			"max":[
				1.3671875,
				0.984375,
				0.8515625
			],
			"min":[
				-1.3671875,
				-0.984375,
				-0.8515625
			],
			"type":"VEC3"
		},
		{
			"bufferView":1,
			"componentType":5126,
			"count":2904,
			"type":"VEC3"
		},
		{
			"bufferView":2,
			"componentType":5126,
			"count":2904,
			"type":"VEC2"
		},
		{
			"bufferView":3,
			"componentType":5123,
			"count":2904,
			"type":"SCALAR"
		}
	],
	"bufferViews":[
		{
			"buffer":0,
			"byteLength":34848,
			"byteOffset":0,
			"target":34962
		},
		{
			"buffer":0,
			"byteLength":34848,
			"byteOffset":34848,
			"target":34962
		},
		{
			"buffer":0,
			"byteLength":23232,
			"byteOffset":69696,
			"target":34962
		},
		{
			"buffer":0,
			"byteLength":5808,
			"byteOffset":92928,
			"target":34963
		}
	],
	"buffers":[
		{
			"byteLength":98736,
			"uri":"monkey-wireframe.bin"
		}
	]
}
